<svg width="142" height="142" viewBox="0 0 142 142" fill="none" xmlns="http://www.w3.org/2000/svg">
<path fill-rule="evenodd" clip-rule="evenodd" d="M140.662 84.7893C141.54 80.3287 142 75.7181 142 71C142 31.7878 110.212 0 71 0C31.7878 0 0 31.7878 0 71C0 71.8803 0.0160213 72.7569 0.0477882 73.6295L14.0045 70.2802C14.3899 39.1317 39.7601 14 71 14C102.48 14 128 39.5198 128 71C128 73.8119 127.796 76.5763 127.403 79.2792L140.662 84.7893ZM137.195 96.727L135.954 99.7147C136.39 98.7304 136.804 97.7343 137.195 96.727ZM129.911 110.643L116.654 105.134C106.258 119.016 89.6781 128 71 128C49.0906 128 30.0682 115.639 20.5268 97.5099L6.56566 100.86C17.8427 125.154 42.454 142 71 142C95.5309 142 117.156 129.559 129.911 110.643ZM1.62039 86.1522C1.8355 87.1418 2.07124 88.1236 2.32714 89.0973L1.62039 86.1522Z" fill="#1B8ADA"/>
<path fill-rule="evenodd" clip-rule="evenodd" d="M109.049 91.6426C103.063 94.8036 96.2405 96.5932 89 96.5932C65.2517 96.5932 46 77.3414 46 53.5932C46 46.3526 47.7896 39.5301 50.9505 33.5437C37.3021 40.7504 28 55.0855 28 71.5932C28 95.3414 47.2518 114.593 71 114.593C87.5077 114.593 101.843 105.291 109.049 91.6426Z" fill="#1B8ADA"/>
</svg>
