<svg width="142" height="142" viewBox="0 0 142 142" fill="none" xmlns="http://www.w3.org/2000/svg">
<path fill-rule="evenodd" clip-rule="evenodd" d="M141.426 80.0679C141.805 77.0986 142 74.0721 142 71C142 31.7878 110.212 0 71 0C31.7878 0 0 31.7878 0 71C0 71.4508 0.00420039 71.9005 0.0125642 72.3493L14.0228 69.3713C14.8849 38.6443 40.0645 14 71 14C102.48 14 128 39.5198 128 71C128 72.4356 127.947 73.8588 127.843 75.2678L141.426 80.0679ZM132.448 106.592L118.955 101.824C108.812 117.571 91.1238 128 71 128C48.767 128 29.507 115.271 20.1103 96.7029L6.03717 99.6942C17.0599 124.613 41.9995 142 71 142C97.242 142 120.159 127.763 132.448 106.592Z" fill="#1B8ADA"/>
<path fill-rule="evenodd" clip-rule="evenodd" d="M109.049 91.6426C103.063 94.8036 96.2405 96.5932 89 96.5932C65.2517 96.5932 46 77.3414 46 53.5932C46 46.3526 47.7896 39.5301 50.9505 33.5437C37.3021 40.7504 28 55.0855 28 71.5932C28 95.3414 47.2517 114.593 71 114.593C87.5077 114.593 101.843 105.291 109.049 91.6426Z" fill="#1B8ADA"/>
</svg>
