<svg width="599" height="142" viewBox="0 0 599 142" fill="none" xmlns="http://www.w3.org/2000/svg">
<path fill-rule="evenodd" clip-rule="evenodd" d="M141.426 80.0679C141.805 77.0986 142 74.0721 142 71C142 31.7878 110.212 0 71 0C31.7878 0 0 31.7878 0 71C0 71.4508 0.00420039 71.9005 0.0125642 72.3493L14.0228 69.3713C14.8849 38.6443 40.0645 14 71 14C102.48 14 128 39.5198 128 71C128 72.4356 127.947 73.8588 127.843 75.2678L141.426 80.0679ZM132.448 106.592L118.955 101.824C108.812 117.571 91.1238 128 71 128C48.767 128 29.507 115.271 20.1103 96.7029L6.03717 99.6942C17.0599 124.613 41.9995 142 71 142C97.242 142 120.159 127.763 132.448 106.592Z" fill="#1B8ADA"/>
<path fill-rule="evenodd" clip-rule="evenodd" d="M109.049 91.6426C103.063 94.8036 96.2405 96.5932 89 96.5932C65.2517 96.5932 46 77.3414 46 53.5932C46 46.3526 47.7896 39.5301 50.9505 33.5437C37.3021 40.7504 28 55.0855 28 71.5932C28 95.3414 47.2517 114.593 71 114.593C87.5077 114.593 101.843 105.291 109.049 91.6426Z" fill="#1B8ADA"/>
<path d="M188.366 111.896C182.819 111.896 177.401 111.171 172.11 109.72C166.819 108.269 162.595 106.435 159.438 104.216L165.582 92.056C168.654 94.104 172.323 95.768 176.59 97.048C180.942 98.2427 185.209 98.84 189.39 98.84C198.947 98.84 203.726 96.3227 203.726 91.288C203.726 88.8987 202.489 87.2347 200.014 86.296C197.625 85.3573 193.742 84.4613 188.366 83.608C182.734 82.7547 178.126 81.7733 174.542 80.664C171.043 79.5547 167.971 77.6347 165.326 74.904C162.766 72.088 161.486 68.2053 161.486 63.256C161.486 56.7707 164.174 51.608 169.55 47.768C175.011 43.8427 182.35 41.88 191.566 41.88C196.259 41.88 200.953 42.4347 205.646 43.544C210.339 44.568 214.179 45.976 217.166 47.768L211.022 59.928C205.219 56.5147 198.691 54.808 191.438 54.808C186.745 54.808 183.161 55.5333 180.686 56.984C178.297 58.3493 177.102 60.184 177.102 62.488C177.102 65.048 178.382 66.8827 180.942 67.992C183.587 69.016 187.641 69.9973 193.102 70.936C198.563 71.7893 203.043 72.7707 206.542 73.88C210.041 74.9893 213.027 76.8667 215.502 79.512C218.062 82.1573 219.342 85.912 219.342 90.776C219.342 97.176 216.569 102.296 211.022 106.136C205.475 109.976 197.923 111.896 188.366 111.896ZM297.377 77.208C297.377 78.3173 297.292 79.896 297.121 81.944H243.489C244.428 86.9787 246.86 90.9893 250.785 93.976C254.796 96.8773 259.745 98.328 265.633 98.328C273.142 98.328 279.329 95.8533 284.193 90.904L292.769 100.76C289.697 104.429 285.814 107.203 281.121 109.08C276.428 110.957 271.137 111.896 265.249 111.896C257.74 111.896 251.126 110.403 245.409 107.416C239.692 104.429 235.254 100.291 232.097 95C229.025 89.624 227.489 83.5653 227.489 76.824C227.489 70.168 228.982 64.1947 231.969 58.904C235.041 53.528 239.265 49.3467 244.641 46.36C250.017 43.3733 256.076 41.88 262.817 41.88C269.473 41.88 275.404 43.3733 280.609 46.36C285.9 49.2613 289.996 53.4 292.897 58.776C295.884 64.0667 297.377 70.2107 297.377 77.208ZM262.817 54.68C257.697 54.68 253.345 56.216 249.761 59.288C246.262 62.2747 244.129 66.2853 243.361 71.32H282.145C281.462 66.3707 279.372 62.36 275.873 59.288C272.374 56.216 268.022 54.68 262.817 54.68ZM312.746 16.024H328.746V111H312.746V16.024ZM414.002 77.208C414.002 78.3173 413.917 79.896 413.746 81.944H360.114C361.053 86.9787 363.485 90.9893 367.41 93.976C371.421 96.8773 376.37 98.328 382.258 98.328C389.767 98.328 395.954 95.8533 400.818 90.904L409.394 100.76C406.322 104.429 402.439 107.203 397.746 109.08C393.053 110.957 387.762 111.896 381.874 111.896C374.365 111.896 367.751 110.403 362.034 107.416C356.317 104.429 351.879 100.291 348.722 95C345.65 89.624 344.114 83.5653 344.114 76.824C344.114 70.168 345.607 64.1947 348.594 58.904C351.666 53.528 355.89 49.3467 361.266 46.36C366.642 43.3733 372.701 41.88 379.442 41.88C386.098 41.88 392.029 43.3733 397.234 46.36C402.525 49.2613 406.621 53.4 409.522 58.776C412.509 64.0667 414.002 70.2107 414.002 77.208ZM379.442 54.68C374.322 54.68 369.97 56.216 366.386 59.288C362.887 62.2747 360.754 66.2853 359.986 71.32H398.77C398.087 66.3707 395.997 62.36 392.498 59.288C388.999 56.216 384.647 54.68 379.442 54.68ZM468.155 41.88C476.774 41.88 483.686 44.3973 488.891 49.432C494.096 54.4667 496.699 61.9333 496.699 71.832V111H480.699V73.88C480.699 67.9067 479.291 63.4267 476.475 60.44C473.659 57.368 469.648 55.832 464.443 55.832C458.555 55.832 453.904 57.624 450.491 61.208C447.078 64.7067 445.371 69.784 445.371 76.44V111H429.371V42.648H444.603V51.48C447.248 48.3227 450.576 45.9333 454.587 44.312C458.598 42.6907 463.12 41.88 468.155 41.88ZM543.108 41.88C553.177 41.88 560.857 44.312 566.148 49.176C571.524 53.9547 574.212 61.208 574.212 70.936V111H559.108V102.68C557.145 105.667 554.329 107.971 550.66 109.592C547.076 111.128 542.724 111.896 537.604 111.896C532.484 111.896 528.004 111.043 524.164 109.336C520.324 107.544 517.337 105.112 515.204 102.04C513.156 98.8827 512.132 95.3413 512.132 91.416C512.132 85.272 514.393 80.3653 518.916 76.696C523.524 72.9413 530.735 71.064 540.548 71.064H558.212V70.04C558.212 65.2613 556.761 61.592 553.86 59.032C551.044 56.472 546.82 55.192 541.188 55.192C537.348 55.192 533.551 55.7893 529.796 56.984C526.127 58.1787 523.012 59.8427 520.452 61.976L514.18 50.328C517.764 47.5973 522.073 45.5067 527.108 44.056C532.143 42.6053 537.476 41.88 543.108 41.88ZM540.932 100.248C544.943 100.248 548.484 99.352 551.556 97.56C554.713 95.6827 556.932 93.0373 558.212 89.624V81.688H541.7C532.484 81.688 527.876 84.7173 527.876 90.776C527.876 93.6773 529.028 95.9813 531.332 97.688C533.636 99.3947 536.836 100.248 540.932 100.248Z" fill="#1B8ADA"/>
</svg>
