<svg width="640" height="142" viewBox="0 0 640 142" fill="none" xmlns="http://www.w3.org/2000/svg">
<path fill-rule="evenodd" clip-rule="evenodd" d="M140.662 84.7893C141.54 80.3287 142 75.7181 142 71C142 31.7878 110.212 0 71 0C31.7878 0 0 31.7878 0 71C0 71.8803 0.0160213 72.7569 0.0477882 73.6295L14.0045 70.2802C14.3899 39.1317 39.7601 14 71 14C102.48 14 128 39.5198 128 71C128 73.8119 127.796 76.5763 127.403 79.2792L140.662 84.7893ZM137.195 96.727L135.954 99.7147C136.39 98.7304 136.804 97.7343 137.195 96.727ZM129.911 110.643L116.654 105.134C106.258 119.016 89.6781 128 71 128C49.0906 128 30.0682 115.639 20.5268 97.5099L6.56566 100.86C17.8427 125.154 42.454 142 71 142C95.5309 142 117.156 129.559 129.911 110.643ZM1.62039 86.1522C1.8355 87.1418 2.07124 88.1236 2.32714 89.0973L1.62039 86.1522Z" fill="#1B8ADA"/>
<path fill-rule="evenodd" clip-rule="evenodd" d="M109.049 91.6426C103.063 94.8036 96.2405 96.5932 89 96.5932C65.2517 96.5932 46 77.3414 46 53.5932C46 46.3526 47.7896 39.5301 50.9505 33.5437C37.3021 40.7504 28 55.0855 28 71.5932C28 95.3414 47.2518 114.593 71 114.593C87.5077 114.593 101.843 105.291 109.049 91.6426Z" fill="#1B8ADA"/>
<path d="M180.712 85.672C176.552 85.672 172.488 85.128 168.52 84.04C164.552 82.952 161.384 81.576 159.016 79.912L163.624 70.792C165.928 72.328 168.68 73.576 171.88 74.536C175.144 75.432 178.344 75.88 181.48 75.88C188.648 75.88 192.232 73.992 192.232 70.216C192.232 68.424 191.304 67.176 189.448 66.472C187.656 65.768 184.744 65.096 180.712 64.456C176.488 63.816 173.032 63.08 170.344 62.248C167.72 61.416 165.416 59.976 163.432 57.928C161.512 55.816 160.552 52.904 160.552 49.192C160.552 44.328 162.568 40.456 166.6 37.576C170.696 34.632 176.2 33.16 183.112 33.16C186.632 33.16 190.152 33.576 193.672 34.408C197.192 35.176 200.072 36.232 202.312 37.576L197.704 46.696C193.352 44.136 188.456 42.856 183.016 42.856C179.496 42.856 176.808 43.4 174.952 44.488C173.16 45.512 172.264 46.888 172.264 48.616C172.264 50.536 173.224 51.912 175.144 52.744C177.128 53.512 180.168 54.248 184.264 54.952C188.36 55.592 191.72 56.328 194.344 57.16C196.968 57.992 199.208 59.4 201.064 61.384C202.984 63.368 203.944 66.184 203.944 69.832C203.944 74.632 201.864 78.472 197.704 81.352C193.544 84.232 187.88 85.672 180.712 85.672ZM262.47 59.656C262.47 60.488 262.406 61.672 262.278 63.208H222.054C222.758 66.984 224.582 69.992 227.526 72.232C230.534 74.408 234.246 75.496 238.662 75.496C244.294 75.496 248.934 73.64 252.582 69.928L259.014 77.32C256.71 80.072 253.798 82.152 250.278 83.56C246.758 84.968 242.79 85.672 238.374 85.672C232.742 85.672 227.782 84.552 223.494 82.312C219.206 80.072 215.878 76.968 213.51 73C211.206 68.968 210.054 64.424 210.054 59.368C210.054 54.376 211.174 49.896 213.414 45.928C215.718 41.896 218.886 38.76 222.918 36.52C226.95 34.28 231.494 33.16 236.55 33.16C241.542 33.16 245.99 34.28 249.894 36.52C253.862 38.696 256.934 41.8 259.11 45.832C261.35 49.8 262.47 54.408 262.47 59.656ZM236.55 42.76C232.71 42.76 229.446 43.912 226.758 46.216C224.134 48.456 222.534 51.464 221.958 55.24H251.046C250.534 51.528 248.966 48.52 246.342 46.216C243.718 43.912 240.454 42.76 236.55 42.76ZM273.997 13.768H285.997V85H273.997V13.768ZM349.939 59.656C349.939 60.488 349.875 61.672 349.747 63.208H309.523C310.227 66.984 312.051 69.992 314.995 72.232C318.003 74.408 321.715 75.496 326.131 75.496C331.763 75.496 336.403 73.64 340.051 69.928L346.483 77.32C344.179 80.072 341.267 82.152 337.747 83.56C334.227 84.968 330.259 85.672 325.843 85.672C320.211 85.672 315.251 84.552 310.963 82.312C306.675 80.072 303.347 76.968 300.979 73C298.675 68.968 297.523 64.424 297.523 59.368C297.523 54.376 298.643 49.896 300.883 45.928C303.187 41.896 306.355 38.76 310.387 36.52C314.419 34.28 318.963 33.16 324.019 33.16C329.011 33.16 333.459 34.28 337.363 36.52C341.331 38.696 344.403 41.8 346.579 45.832C348.819 49.8 349.939 54.408 349.939 59.656ZM324.019 42.76C320.179 42.76 316.915 43.912 314.227 46.216C311.603 48.456 310.003 51.464 309.427 55.24H338.515C338.003 51.528 336.435 48.52 333.811 46.216C331.187 43.912 327.923 42.76 324.019 42.76ZM390.554 33.16C397.018 33.16 402.202 35.048 406.106 38.824C410.01 42.6 411.962 48.2 411.962 55.624V85H399.962V57.16C399.962 52.68 398.906 49.32 396.794 47.08C394.682 44.776 391.674 43.624 387.77 43.624C383.354 43.624 379.866 44.968 377.306 47.656C374.746 50.28 373.466 54.088 373.466 59.08V85H361.466V33.736H372.89V40.36C374.874 37.992 377.37 36.2 380.378 34.984C383.386 33.768 386.778 33.16 390.554 33.16ZM475.845 59.656C475.845 60.488 475.781 61.672 475.653 63.208H435.429C436.133 66.984 437.957 69.992 440.901 72.232C443.909 74.408 447.621 75.496 452.037 75.496C457.669 75.496 462.309 73.64 465.957 69.928L472.389 77.32C470.085 80.072 467.173 82.152 463.653 83.56C460.133 84.968 456.165 85.672 451.749 85.672C446.117 85.672 441.157 84.552 436.869 82.312C432.581 80.072 429.253 76.968 426.885 73C424.581 68.968 423.429 64.424 423.429 59.368C423.429 54.376 424.549 49.896 426.789 45.928C429.093 41.896 432.261 38.76 436.293 36.52C440.325 34.28 444.869 33.16 449.925 33.16C454.917 33.16 459.365 34.28 463.269 36.52C467.237 38.696 470.309 41.8 472.485 45.832C474.725 49.8 475.845 54.408 475.845 59.656ZM449.925 42.76C446.085 42.76 442.821 43.912 440.133 46.216C437.509 48.456 435.909 51.464 435.333 55.24H464.421C463.909 51.528 462.341 48.52 459.717 46.216C457.093 43.912 453.829 42.76 449.925 42.76Z" fill="#1B8ADA"/>
<path d="M168.44 101.4C171.587 101.4 173.987 102.16 175.64 103.68C177.32 105.173 178.16 107.44 178.16 110.48V123H173.44V120.4C172.827 121.333 171.947 122.053 170.8 122.56C169.68 123.04 168.32 123.28 166.72 123.28C165.12 123.28 163.72 123.013 162.52 122.48C161.32 121.92 160.387 121.16 159.72 120.2C159.08 119.213 158.76 118.107 158.76 116.88C158.76 114.96 159.467 113.427 160.88 112.28C162.32 111.107 164.573 110.52 167.64 110.52H173.16V110.2C173.16 108.707 172.707 107.56 171.8 106.76C170.92 105.96 169.6 105.56 167.84 105.56C166.64 105.56 165.453 105.747 164.28 106.12C163.133 106.493 162.16 107.013 161.36 107.68L159.4 104.04C160.52 103.187 161.867 102.533 163.44 102.08C165.013 101.627 166.68 101.4 168.44 101.4ZM167.76 119.64C169.013 119.64 170.12 119.36 171.08 118.8C172.067 118.213 172.76 117.387 173.16 116.32V113.84H168C165.12 113.84 163.68 114.787 163.68 116.68C163.68 117.587 164.04 118.307 164.76 118.84C165.48 119.373 166.48 119.64 167.76 119.64ZM222.592 101.4C225.285 101.4 227.418 102.187 228.992 103.76C230.565 105.307 231.352 107.64 231.352 110.76V123H226.352V111.4C226.352 109.533 225.938 108.133 225.112 107.2C224.285 106.24 223.098 105.76 221.552 105.76C219.872 105.76 218.525 106.32 217.512 107.44C216.498 108.533 215.992 110.107 215.992 112.16V123H210.992V111.4C210.992 109.533 210.578 108.133 209.752 107.2C208.925 106.24 207.738 105.76 206.192 105.76C204.485 105.76 203.125 106.307 202.112 107.4C201.125 108.493 200.632 110.08 200.632 112.16V123H195.632V101.64H200.392V104.36C201.192 103.4 202.192 102.667 203.392 102.16C204.592 101.653 205.925 101.4 207.392 101.4C208.992 101.4 210.405 101.707 211.632 102.32C212.885 102.907 213.872 103.787 214.592 104.96C215.472 103.84 216.605 102.973 217.992 102.36C219.378 101.72 220.912 101.4 222.592 101.4ZM247.536 123.28C245.376 123.28 243.43 122.813 241.696 121.88C239.963 120.947 238.603 119.653 237.616 118C236.656 116.32 236.176 114.427 236.176 112.32C236.176 110.213 236.656 108.333 237.616 106.68C238.603 105.027 239.963 103.733 241.696 102.8C243.43 101.867 245.376 101.4 247.536 101.4C249.723 101.4 251.683 101.867 253.416 102.8C255.15 103.733 256.496 105.027 257.456 106.68C258.443 108.333 258.936 110.213 258.936 112.32C258.936 114.427 258.443 116.32 257.456 118C256.496 119.653 255.15 120.947 253.416 121.88C251.683 122.813 249.723 123.28 247.536 123.28ZM247.536 119C249.376 119 250.896 118.387 252.096 117.16C253.296 115.933 253.896 114.32 253.896 112.32C253.896 110.32 253.296 108.707 252.096 107.48C250.896 106.253 249.376 105.64 247.536 105.64C245.696 105.64 244.176 106.253 242.976 107.48C241.803 108.707 241.216 110.32 241.216 112.32C241.216 114.32 241.803 115.933 242.976 117.16C244.176 118.387 245.696 119 247.536 119ZM284.638 93.32V123H279.838V120.24C279.011 121.253 277.984 122.013 276.758 122.52C275.558 123.027 274.224 123.28 272.758 123.28C270.704 123.28 268.851 122.827 267.198 121.92C265.571 121.013 264.291 119.733 263.358 118.08C262.424 116.4 261.958 114.48 261.958 112.32C261.958 110.16 262.424 108.253 263.358 106.6C264.291 104.947 265.571 103.667 267.198 102.76C268.851 101.853 270.704 101.4 272.758 101.4C274.171 101.4 275.464 101.64 276.638 102.12C277.811 102.6 278.811 103.32 279.638 104.28V93.32H284.638ZM273.358 119C274.558 119 275.638 118.733 276.598 118.2C277.558 117.64 278.318 116.853 278.878 115.84C279.438 114.827 279.718 113.653 279.718 112.32C279.718 110.987 279.438 109.813 278.878 108.8C278.318 107.787 277.558 107.013 276.598 106.48C275.638 105.92 274.558 105.64 273.358 105.64C272.158 105.64 271.078 105.92 270.118 106.48C269.158 107.013 268.398 107.787 267.838 108.8C267.278 109.813 266.998 110.987 266.998 112.32C266.998 113.653 267.278 114.827 267.838 115.84C268.398 116.853 269.158 117.64 270.118 118.2C271.078 118.733 272.158 119 273.358 119ZM303.018 101.4C305.098 101.4 306.952 101.853 308.578 102.76C310.232 103.667 311.525 104.947 312.458 106.6C313.392 108.253 313.858 110.16 313.858 112.32C313.858 114.48 313.392 116.4 312.458 118.08C311.525 119.733 310.232 121.013 308.578 121.92C306.952 122.827 305.098 123.28 303.018 123.28C300.138 123.28 297.858 122.32 296.178 120.4V130.76H291.178V101.64H295.938V104.44C296.765 103.427 297.778 102.667 298.978 102.16C300.205 101.653 301.552 101.4 303.018 101.4ZM302.458 119C304.298 119 305.805 118.387 306.978 117.16C308.178 115.933 308.778 114.32 308.778 112.32C308.778 110.32 308.178 108.707 306.978 107.48C305.805 106.253 304.298 105.64 302.458 105.64C301.258 105.64 300.178 105.92 299.218 106.48C298.258 107.013 297.498 107.787 296.938 108.8C296.378 109.813 296.098 110.987 296.098 112.32C296.098 113.653 296.378 114.827 296.938 115.84C297.498 116.853 298.258 117.64 299.218 118.2C300.178 118.733 301.258 119 302.458 119ZM326.487 101.4C329.634 101.4 332.034 102.16 333.687 103.68C335.367 105.173 336.207 107.44 336.207 110.48V123H331.487V120.4C330.874 121.333 329.994 122.053 328.847 122.56C327.727 123.04 326.367 123.28 324.767 123.28C323.167 123.28 321.767 123.013 320.567 122.48C319.367 121.92 318.434 121.16 317.767 120.2C317.127 119.213 316.807 118.107 316.807 116.88C316.807 114.96 317.514 113.427 318.927 112.28C320.367 111.107 322.62 110.52 325.687 110.52H331.207V110.2C331.207 108.707 330.754 107.56 329.847 106.76C328.967 105.96 327.647 105.56 325.887 105.56C324.687 105.56 323.5 105.747 322.327 106.12C321.18 106.493 320.207 107.013 319.407 107.68L317.447 104.04C318.567 103.187 319.914 102.533 321.487 102.08C323.06 101.627 324.727 101.4 326.487 101.4ZM325.807 119.64C327.06 119.64 328.167 119.36 329.127 118.8C330.114 118.213 330.807 117.387 331.207 116.32V113.84H326.047C323.167 113.84 321.727 114.787 321.727 116.68C321.727 117.587 322.087 118.307 322.807 118.84C323.527 119.373 324.527 119.64 325.807 119.64ZM352.619 123.28C350.406 123.28 348.419 122.813 346.659 121.88C344.899 120.947 343.526 119.653 342.539 118C341.552 116.32 341.059 114.427 341.059 112.32C341.059 110.213 341.552 108.333 342.539 106.68C343.526 105.027 344.886 103.733 346.619 102.8C348.379 101.867 350.379 101.4 352.619 101.4C354.726 101.4 356.566 101.827 358.139 102.68C359.739 103.533 360.939 104.76 361.739 106.36L357.899 108.6C357.286 107.613 356.512 106.88 355.579 106.4C354.672 105.893 353.672 105.64 352.579 105.64C350.712 105.64 349.166 106.253 347.939 107.48C346.712 108.68 346.099 110.293 346.099 112.32C346.099 114.347 346.699 115.973 347.899 117.2C349.126 118.4 350.686 119 352.579 119C353.672 119 354.672 118.76 355.579 118.28C356.512 117.773 357.286 117.027 357.899 116.04L361.739 118.28C360.912 119.88 359.699 121.12 358.099 122C356.526 122.853 354.699 123.28 352.619 123.28ZM374.586 113.84L370.866 117.36V123H365.866V93.32H370.866V111.24L381.226 101.64H387.226L378.306 110.6L388.066 123H381.986L374.586 113.84ZM410.477 112.44C410.477 112.787 410.451 113.28 410.397 113.92H393.637C393.931 115.493 394.691 116.747 395.917 117.68C397.171 118.587 398.717 119.04 400.557 119.04C402.904 119.04 404.837 118.267 406.357 116.72L409.037 119.8C408.077 120.947 406.864 121.813 405.397 122.4C403.931 122.987 402.277 123.28 400.437 123.28C398.091 123.28 396.024 122.813 394.237 121.88C392.451 120.947 391.064 119.653 390.077 118C389.117 116.32 388.637 114.427 388.637 112.32C388.637 110.24 389.104 108.373 390.037 106.72C390.997 105.04 392.317 103.733 393.997 102.8C395.677 101.867 397.571 101.4 399.677 101.4C401.757 101.4 403.611 101.867 405.237 102.8C406.891 103.707 408.171 105 409.077 106.68C410.011 108.333 410.477 110.253 410.477 112.44ZM399.677 105.4C398.077 105.4 396.717 105.88 395.597 106.84C394.504 107.773 393.837 109.027 393.597 110.6H405.717C405.504 109.053 404.851 107.8 403.757 106.84C402.664 105.88 401.304 105.4 399.677 105.4ZM420.04 104.76C421.48 102.52 424.013 101.4 427.64 101.4V106.16C427.213 106.08 426.827 106.04 426.48 106.04C424.533 106.04 423.013 106.613 421.92 107.76C420.827 108.88 420.28 110.507 420.28 112.64V123H415.28V101.64H420.04V104.76ZM463.212 112.44C463.212 112.787 463.185 113.28 463.132 113.92H446.372C446.665 115.493 447.425 116.747 448.652 117.68C449.905 118.587 451.452 119.04 453.292 119.04C455.638 119.04 457.572 118.267 459.092 116.72L461.772 119.8C460.812 120.947 459.598 121.813 458.132 122.4C456.665 122.987 455.012 123.28 453.172 123.28C450.825 123.28 448.758 122.813 446.972 121.88C445.185 120.947 443.798 119.653 442.812 118C441.852 116.32 441.372 114.427 441.372 112.32C441.372 110.24 441.838 108.373 442.772 106.72C443.732 105.04 445.052 103.733 446.732 102.8C448.412 101.867 450.305 101.4 452.412 101.4C454.492 101.4 456.345 101.867 457.972 102.8C459.625 103.707 460.905 105 461.812 106.68C462.745 108.333 463.212 110.253 463.212 112.44ZM452.412 105.4C450.812 105.4 449.452 105.88 448.332 106.84C447.238 107.773 446.572 109.027 446.332 110.6H458.452C458.238 109.053 457.585 107.8 456.492 106.84C455.398 105.88 454.038 105.4 452.412 105.4ZM481.028 123L475.548 115.6L470.028 123H464.508L472.828 112.16L464.868 101.64H470.428L475.668 108.64L480.908 101.64H486.308L478.308 112.08L486.668 123H481.028ZM503.198 121.84C502.611 122.32 501.891 122.68 501.038 122.92C500.211 123.16 499.331 123.28 498.398 123.28C496.051 123.28 494.238 122.667 492.958 121.44C491.678 120.213 491.038 118.427 491.038 116.08V105.8H487.518V101.8H491.038V96.92H496.038V101.8H501.758V105.8H496.038V115.96C496.038 117 496.291 117.8 496.798 118.36C497.305 118.893 498.038 119.16 498.998 119.16C500.118 119.16 501.051 118.867 501.798 118.28L503.198 121.84ZM526.688 112.44C526.688 112.787 526.661 113.28 526.608 113.92H509.848C510.141 115.493 510.901 116.747 512.128 117.68C513.381 118.587 514.928 119.04 516.768 119.04C519.115 119.04 521.048 118.267 522.568 116.72L525.248 119.8C524.288 120.947 523.075 121.813 521.608 122.4C520.141 122.987 518.488 123.28 516.648 123.28C514.301 123.28 512.235 122.813 510.448 121.88C508.661 120.947 507.275 119.653 506.288 118C505.328 116.32 504.848 114.427 504.848 112.32C504.848 110.24 505.315 108.373 506.248 106.72C507.208 105.04 508.528 103.733 510.208 102.8C511.888 101.867 513.781 101.4 515.888 101.4C517.968 101.4 519.821 101.867 521.448 102.8C523.101 103.707 524.381 105 525.288 106.68C526.221 108.333 526.688 110.253 526.688 112.44ZM515.888 105.4C514.288 105.4 512.928 105.88 511.808 106.84C510.715 107.773 510.048 109.027 509.808 110.6H521.928C521.715 109.053 521.061 107.8 519.968 106.84C518.875 105.88 517.515 105.4 515.888 105.4ZM543.611 101.4C546.304 101.4 548.464 102.187 550.091 103.76C551.718 105.333 552.531 107.667 552.531 110.76V123H547.531V111.4C547.531 109.533 547.091 108.133 546.211 107.2C545.331 106.24 544.078 105.76 542.451 105.76C540.611 105.76 539.158 106.32 538.091 107.44C537.024 108.533 536.491 110.12 536.491 112.2V123H531.491V101.64H536.251V104.4C537.078 103.413 538.118 102.667 539.371 102.16C540.624 101.653 542.038 101.4 543.611 101.4ZM565.474 123.28C563.74 123.28 562.047 123.053 560.394 122.6C558.74 122.147 557.42 121.573 556.434 120.88L558.354 117.08C559.314 117.72 560.46 118.24 561.794 118.64C563.154 119.013 564.487 119.2 565.794 119.2C568.78 119.2 570.274 118.413 570.274 116.84C570.274 116.093 569.887 115.573 569.114 115.28C568.367 114.987 567.154 114.707 565.474 114.44C563.714 114.173 562.274 113.867 561.154 113.52C560.06 113.173 559.1 112.573 558.274 111.72C557.474 110.84 557.074 109.627 557.074 108.08C557.074 106.053 557.914 104.44 559.594 103.24C561.3 102.013 563.594 101.4 566.474 101.4C567.94 101.4 569.407 101.573 570.874 101.92C572.34 102.24 573.54 102.68 574.474 103.24L572.554 107.04C570.74 105.973 568.7 105.44 566.434 105.44C564.967 105.44 563.847 105.667 563.074 106.12C562.327 106.547 561.954 107.12 561.954 107.84C561.954 108.64 562.354 109.213 563.154 109.56C563.98 109.88 565.247 110.187 566.954 110.48C568.66 110.747 570.06 111.053 571.154 111.4C572.247 111.747 573.18 112.333 573.954 113.16C574.754 113.987 575.154 115.16 575.154 116.68C575.154 118.68 574.287 120.28 572.554 121.48C570.82 122.68 568.46 123.28 565.474 123.28ZM579.46 101.64H584.46V123H579.46V101.64ZM581.98 98.12C581.073 98.12 580.313 97.84 579.7 97.28C579.086 96.6933 578.78 95.9733 578.78 95.12C578.78 94.2667 579.086 93.56 579.7 93C580.313 92.4133 581.073 92.12 581.98 92.12C582.886 92.12 583.646 92.4 584.26 92.96C584.873 93.4933 585.18 94.1733 585.18 95C585.18 95.88 584.873 96.6267 584.26 97.24C583.673 97.8267 582.913 98.12 581.98 98.12ZM600.622 123.28C598.462 123.28 596.516 122.813 594.782 121.88C593.049 120.947 591.689 119.653 590.702 118C589.742 116.32 589.262 114.427 589.262 112.32C589.262 110.213 589.742 108.333 590.702 106.68C591.689 105.027 593.049 103.733 594.782 102.8C596.516 101.867 598.462 101.4 600.622 101.4C602.809 101.4 604.769 101.867 606.502 102.8C608.236 103.733 609.582 105.027 610.542 106.68C611.529 108.333 612.022 110.213 612.022 112.32C612.022 114.427 611.529 116.32 610.542 118C609.582 119.653 608.236 120.947 606.502 121.88C604.769 122.813 602.809 123.28 600.622 123.28ZM600.622 119C602.462 119 603.982 118.387 605.182 117.16C606.382 115.933 606.982 114.32 606.982 112.32C606.982 110.32 606.382 108.707 605.182 107.48C603.982 106.253 602.462 105.64 600.622 105.64C598.782 105.64 597.262 106.253 596.062 107.48C594.889 108.707 594.302 110.32 594.302 112.32C594.302 114.32 594.889 115.933 596.062 117.16C597.262 118.387 598.782 119 600.622 119ZM628.923 101.4C631.617 101.4 633.777 102.187 635.403 103.76C637.03 105.333 637.843 107.667 637.843 110.76V123H632.843V111.4C632.843 109.533 632.403 108.133 631.523 107.2C630.643 106.24 629.39 105.76 627.763 105.76C625.923 105.76 624.47 106.32 623.403 107.44C622.337 108.533 621.803 110.12 621.803 112.2V123H616.803V101.64H621.563V104.4C622.39 103.413 623.43 102.667 624.683 102.16C625.937 101.653 627.35 101.4 628.923 101.4Z" fill="#1B8ADA"/>
</svg>
