<svg width="576" height="104" viewBox="0 0 576 104" fill="none" xmlns="http://www.w3.org/2000/svg">
<rect width="156" height="52" fill="#0057B7"/>
<rect y="52" width="156" height="52" fill="#FFD700"/>
<path d="M184.44 66.4C182.253 66.4 180.16 66.0933 178.16 65.48C176.16 64.84 174.573 64.0267 173.4 63.04L175.2 59C176.32 59.88 177.707 60.6133 179.36 61.2C181.013 61.7867 182.707 62.08 184.44 62.08C185.907 62.08 187.093 61.92 188 61.6C188.907 61.28 189.573 60.8533 190 60.32C190.427 59.76 190.64 59.1333 190.64 58.44C190.64 57.5867 190.333 56.9067 189.72 56.4C189.107 55.8667 188.307 55.4533 187.32 55.16C186.36 54.84 185.28 54.5467 184.08 54.28C182.907 54.0133 181.72 53.7067 180.52 53.36C179.347 52.9867 178.267 52.52 177.28 51.96C176.32 51.3733 175.533 50.6 174.92 49.64C174.307 48.68 174 47.4533 174 45.96C174 44.44 174.4 43.0533 175.2 41.8C176.027 40.52 177.267 39.5067 178.92 38.76C180.6 37.9867 182.72 37.6 185.28 37.6C186.96 37.6 188.627 37.8133 190.28 38.24C191.933 38.6667 193.373 39.28 194.6 40.08L192.96 44.12C191.707 43.3733 190.413 42.8267 189.08 42.48C187.747 42.1067 186.467 41.92 185.24 41.92C183.8 41.92 182.627 42.0933 181.72 42.44C180.84 42.7867 180.187 43.24 179.76 43.8C179.36 44.36 179.16 45 179.16 45.72C179.16 46.5733 179.453 47.2667 180.04 47.8C180.653 48.3067 181.44 48.7067 182.4 49C183.387 49.2933 184.48 49.5867 185.68 49.88C186.88 50.1467 188.067 50.4533 189.24 50.8C190.44 51.1467 191.52 51.6 192.48 52.16C193.467 52.72 194.253 53.48 194.84 54.44C195.453 55.4 195.76 56.6133 195.76 58.08C195.76 59.5733 195.347 60.96 194.52 62.24C193.72 63.4933 192.48 64.5067 190.8 65.28C189.12 66.0267 187 66.4 184.44 66.4ZM208.476 66.28C206.13 66.28 204.316 65.68 203.036 64.48C201.756 63.2533 201.116 61.4533 201.116 59.08V39.92H206.116V58.96C206.116 59.9733 206.37 60.76 206.876 61.32C207.41 61.88 208.143 62.16 209.076 62.16C210.196 62.16 211.13 61.8667 211.876 61.28L213.276 64.84C212.69 65.32 211.97 65.68 211.116 65.92C210.263 66.16 209.383 66.28 208.476 66.28ZM197.596 48.8V44.8H211.836V48.8H197.596ZM226.286 66.28C224.1 66.28 222.153 65.8133 220.446 64.88C218.74 63.92 217.393 62.6133 216.406 60.96C215.42 59.3067 214.926 57.4267 214.926 55.32C214.926 53.1867 215.42 51.3067 216.406 49.68C217.393 48.0267 218.74 46.7333 220.446 45.8C222.153 44.8667 224.1 44.4 226.286 44.4C228.5 44.4 230.46 44.8667 232.166 45.8C233.9 46.7333 235.246 48.0133 236.206 49.64C237.193 51.2667 237.686 53.16 237.686 55.32C237.686 57.4267 237.193 59.3067 236.206 60.96C235.246 62.6133 233.9 63.92 232.166 64.88C230.46 65.8133 228.5 66.28 226.286 66.28ZM226.286 62C227.513 62 228.606 61.7333 229.566 61.2C230.526 60.6667 231.273 59.8933 231.806 58.88C232.366 57.8667 232.646 56.68 232.646 55.32C232.646 53.9333 232.366 52.7467 231.806 51.76C231.273 50.7467 230.526 49.9733 229.566 49.44C228.606 48.9067 227.526 48.64 226.326 48.64C225.1 48.64 224.006 48.9067 223.046 49.44C222.113 49.9733 221.366 50.7467 220.806 51.76C220.246 52.7467 219.966 53.9333 219.966 55.32C219.966 56.68 220.246 57.8667 220.806 58.88C221.366 59.8933 222.113 60.6667 223.046 61.2C224.006 61.7333 225.086 62 226.286 62ZM254.308 66.28C252.574 66.28 250.988 65.88 249.548 65.08C248.134 64.28 247.001 63.08 246.148 61.48C245.321 59.8533 244.908 57.8 244.908 55.32C244.908 52.8133 245.308 50.76 246.108 49.16C246.934 47.56 248.054 46.3733 249.467 45.6C250.881 44.8 252.494 44.4 254.308 44.4C256.414 44.4 258.268 44.8533 259.868 45.76C261.494 46.6667 262.774 47.9333 263.708 49.56C264.668 51.1867 265.148 53.1067 265.148 55.32C265.148 57.5333 264.668 59.4667 263.708 61.12C262.774 62.7467 261.494 64.0133 259.868 64.92C258.268 65.8267 256.414 66.28 254.308 66.28ZM242.468 73.76V44.64H247.228V49.68L247.068 55.36L247.468 61.04V73.76H242.468ZM253.748 62C254.948 62 256.014 61.7333 256.948 61.2C257.908 60.6667 258.668 59.8933 259.228 58.88C259.788 57.8667 260.068 56.68 260.068 55.32C260.068 53.9333 259.788 52.7467 259.228 51.76C258.668 50.7467 257.908 49.9733 256.948 49.44C256.014 48.9067 254.948 48.64 253.748 48.64C252.548 48.64 251.468 48.9067 250.508 49.44C249.548 49.9733 248.788 50.7467 248.228 51.76C247.668 52.7467 247.388 53.9333 247.388 55.32C247.388 56.68 247.668 57.8667 248.228 58.88C248.788 59.8933 249.548 60.6667 250.508 61.2C251.468 61.7333 252.548 62 253.748 62ZM285.664 66L277.824 44.64H282.544L289.264 63.48H287.024L294.064 44.64H298.264L305.104 63.48H302.904L309.824 44.64H314.264L306.384 66H301.584L295.344 49.32H296.824L290.464 66H285.664ZM330.198 66V61.68L329.918 60.76V53.2C329.918 51.7333 329.478 50.6 328.598 49.8C327.718 48.9733 326.384 48.56 324.598 48.56C323.398 48.56 322.211 48.7467 321.038 49.12C319.891 49.4933 318.918 50.0133 318.118 50.68L316.158 47.04C317.304 46.16 318.664 45.5067 320.238 45.08C321.838 44.6267 323.491 44.4 325.198 44.4C328.291 44.4 330.678 45.1467 332.358 46.64C334.064 48.1067 334.918 50.3867 334.918 53.48V66H330.198ZM323.478 66.28C321.878 66.28 320.478 66.0133 319.278 65.48C318.078 64.92 317.144 64.16 316.478 63.2C315.838 62.2133 315.518 61.1067 315.518 59.88C315.518 58.68 315.798 57.6 316.358 56.64C316.944 55.68 317.891 54.92 319.198 54.36C320.504 53.8 322.238 53.52 324.398 53.52H330.598V56.84H324.758C323.051 56.84 321.904 57.12 321.318 57.68C320.731 58.2133 320.438 58.88 320.438 59.68C320.438 60.5867 320.798 61.3067 321.518 61.84C322.238 62.3733 323.238 62.64 324.518 62.64C325.744 62.64 326.838 62.36 327.798 61.8C328.784 61.24 329.491 60.4133 329.918 59.32L330.758 62.32C330.278 63.5733 329.411 64.5467 328.158 65.24C326.931 65.9333 325.371 66.28 323.478 66.28ZM341.335 66V44.64H346.095V50.52L345.535 48.8C346.175 47.36 347.175 46.2667 348.535 45.52C349.921 44.7733 351.641 44.4 353.695 44.4V49.16C353.481 49.1067 353.281 49.08 353.095 49.08C352.908 49.0533 352.721 49.04 352.535 49.04C350.641 49.04 349.135 49.6 348.015 50.72C346.895 51.8133 346.335 53.4533 346.335 55.64V66H341.335ZM369.186 66V44.64H374.186V66H369.186ZM371.706 41.12C370.773 41.12 370 40.8267 369.386 40.24C368.8 39.6533 368.506 38.9467 368.506 38.12C368.506 37.2667 368.8 36.56 369.386 36C370 35.4133 370.773 35.12 371.706 35.12C372.64 35.12 373.4 35.4 373.986 35.96C374.6 36.4933 374.906 37.1733 374.906 38C374.906 38.88 374.613 39.6267 374.026 40.24C373.44 40.8267 372.666 41.12 371.706 41.12ZM392.869 44.4C394.575 44.4 396.095 44.7333 397.429 45.4C398.789 46.0667 399.855 47.0933 400.629 48.48C401.402 49.84 401.789 51.6 401.789 53.76V66H396.789V54.4C396.789 52.5067 396.335 51.0933 395.429 50.16C394.549 49.2267 393.309 48.76 391.709 48.76C390.535 48.76 389.495 49 388.589 49.48C387.682 49.96 386.975 50.68 386.469 51.64C385.989 52.5733 385.749 53.76 385.749 55.2V66H380.749V44.64H385.509V50.4L384.669 48.64C385.415 47.28 386.495 46.24 387.909 45.52C389.349 44.7733 391.002 44.4 392.869 44.4ZM431.706 66.4C427.866 66.4 424.853 65.32 422.666 63.16C420.506 61 419.426 57.88 419.426 53.8V38H424.626V53.6C424.626 56.48 425.24 58.5733 426.466 59.88C427.72 61.1867 429.48 61.84 431.746 61.84C434.013 61.84 435.76 61.1867 436.986 59.88C438.213 58.5733 438.826 56.48 438.826 53.6V38H443.946V53.8C443.946 57.88 442.853 61 440.666 63.16C438.506 65.32 435.52 66.4 431.706 66.4ZM454.829 61.24L454.949 54.96L466.109 44.64H472.109L462.629 54.16L459.989 56.36L454.829 61.24ZM450.749 66V36.32H455.749V66H450.749ZM466.869 66L459.069 56.36L462.229 52.36L472.949 66H466.869ZM475.983 66V44.64H480.743V50.52L480.183 48.8C480.823 47.36 481.823 46.2667 483.183 45.52C484.57 44.7733 486.29 44.4 488.343 44.4V49.16C488.13 49.1067 487.93 49.08 487.743 49.08C487.556 49.0533 487.37 49.04 487.183 49.04C485.29 49.04 483.783 49.6 482.663 50.72C481.543 51.8133 480.983 53.4533 480.983 55.64V66H475.983ZM504.221 66V61.68L503.941 60.76V53.2C503.941 51.7333 503.501 50.6 502.621 49.8C501.741 48.9733 500.408 48.56 498.621 48.56C497.421 48.56 496.235 48.7467 495.061 49.12C493.915 49.4933 492.941 50.0133 492.141 50.68L490.181 47.04C491.328 46.16 492.688 45.5067 494.261 45.08C495.861 44.6267 497.515 44.4 499.221 44.4C502.315 44.4 504.701 45.1467 506.381 46.64C508.088 48.1067 508.941 50.3867 508.941 53.48V66H504.221ZM497.501 66.28C495.901 66.28 494.501 66.0133 493.301 65.48C492.101 64.92 491.168 64.16 490.501 63.2C489.861 62.2133 489.541 61.1067 489.541 59.88C489.541 58.68 489.821 57.6 490.381 56.64C490.968 55.68 491.915 54.92 493.221 54.36C494.528 53.8 496.261 53.52 498.421 53.52H504.621V56.84H498.781C497.075 56.84 495.928 57.12 495.341 57.68C494.755 58.2133 494.461 58.88 494.461 59.68C494.461 60.5867 494.821 61.3067 495.541 61.84C496.261 62.3733 497.261 62.64 498.541 62.64C499.768 62.64 500.861 62.36 501.821 61.8C502.808 61.24 503.515 60.4133 503.941 59.32L504.781 62.32C504.301 63.5733 503.435 64.5467 502.181 65.24C500.955 65.9333 499.395 66.28 497.501 66.28ZM515.358 66V44.64H520.358V66H515.358ZM517.878 41.12C516.945 41.12 516.171 40.8267 515.558 40.24C514.971 39.6533 514.678 38.9467 514.678 38.12C514.678 37.2667 514.971 36.56 515.558 36C516.171 35.4133 516.945 35.12 517.878 35.12C518.811 35.12 519.571 35.4 520.158 35.96C520.771 36.4933 521.078 37.1733 521.078 38C521.078 38.88 520.785 39.6267 520.198 40.24C519.611 40.8267 518.838 41.12 517.878 41.12ZM539.041 44.4C540.747 44.4 542.267 44.7333 543.601 45.4C544.961 46.0667 546.027 47.0933 546.801 48.48C547.574 49.84 547.961 51.6 547.961 53.76V66H542.961V54.4C542.961 52.5067 542.507 51.0933 541.601 50.16C540.721 49.2267 539.481 48.76 537.881 48.76C536.707 48.76 535.667 49 534.761 49.48C533.854 49.96 533.147 50.68 532.641 51.64C532.161 52.5733 531.921 53.76 531.921 55.2V66H526.921V44.64H531.681V50.4L530.841 48.64C531.587 47.28 532.667 46.24 534.081 45.52C535.521 44.7733 537.174 44.4 539.041 44.4ZM564.383 66.28C562.009 66.28 559.929 65.8133 558.143 64.88C556.383 63.92 555.009 62.6133 554.023 60.96C553.063 59.3067 552.583 57.4267 552.583 55.32C552.583 53.1867 553.049 51.3067 553.983 49.68C554.943 48.0267 556.249 46.7333 557.903 45.8C559.583 44.8667 561.489 44.4 563.623 44.4C565.703 44.4 567.556 44.8533 569.183 45.76C570.809 46.6667 572.089 47.9467 573.023 49.6C573.956 51.2533 574.423 53.2 574.423 55.44C574.423 55.6533 574.409 55.8933 574.383 56.16C574.383 56.4267 574.369 56.68 574.343 56.92H556.543V53.6H571.703L569.743 54.64C569.769 53.4133 569.516 52.3333 568.983 51.4C568.449 50.4667 567.716 49.7333 566.783 49.2C565.876 48.6667 564.823 48.4 563.623 48.4C562.396 48.4 561.316 48.6667 560.383 49.2C559.476 49.7333 558.756 50.48 558.223 51.44C557.716 52.3733 557.463 53.48 557.463 54.76V55.56C557.463 56.84 557.756 57.9733 558.343 58.96C558.929 59.9467 559.756 60.7067 560.823 61.24C561.889 61.7733 563.116 62.04 564.503 62.04C565.703 62.04 566.783 61.8533 567.743 61.48C568.703 61.1067 569.556 60.52 570.303 59.72L572.983 62.8C572.023 63.92 570.809 64.7867 569.343 65.4C567.903 65.9867 566.249 66.28 564.383 66.28Z" fill="#1B8ADA"/>
</svg>
